<svg width="130" height="130" viewBox="0 0 130 130" fill="none" xmlns="http://www.w3.org/2000/svg">
<g filter="url(#filter0_d)">
<circle cx="65.5238" cy="63.4761" r="47.1429" fill="white"/>
<circle r="50.3095" transform="matrix(-1 0 0 1 69.1905 61.905)" stroke="#F3A932"/>
<circle r="50.3095" transform="matrix(-1 0 0 1 63.9524 66.0954)" stroke="#F3A932"/>
<circle r="50.3095" transform="matrix(-1 0 0 1 69.1905 68.1904)" stroke="#F3A932"/>
<circle r="50.3095" transform="matrix(-1 0 0 1 60.8095 61.905)" stroke="#F3A932"/>
<circle r="50.3095" transform="matrix(-1 0 0 1 69.1902 59.8095)" stroke="#F3A932"/>
<circle r="50.3095" transform="matrix(-1 0 0 1 60.8095 66.0954)" stroke="#F3A932"/>
<circle r="50.3095" transform="matrix(-1 0 0 1 67.0953 64)" stroke="#F3A932"/>
<path d="M34.6861 58.544H36.8461V67.952H41.6941V70H34.6861V58.544ZM46.6539 70.256C45.8433 70.256 45.1126 70.0693 44.4619 69.696C43.8113 69.3227 43.2993 68.8107 42.9259 68.16C42.5633 67.4987 42.3819 66.7573 42.3819 65.936C42.3819 65.1573 42.5633 64.4373 42.9259 63.776C43.2886 63.104 43.7899 62.5707 44.4299 62.176C45.0699 61.7813 45.7846 61.584 46.5739 61.584C47.4166 61.584 48.1419 61.7653 48.7499 62.128C49.3579 62.4907 49.8166 62.9867 50.1259 63.616C50.4459 64.2453 50.6059 64.944 50.6059 65.712C50.6059 65.9573 50.5899 66.192 50.5579 66.416H44.4299C44.5366 67.0667 44.7926 67.5627 45.1979 67.904C45.6139 68.2347 46.1099 68.4 46.6859 68.4C47.1659 68.4 47.5766 68.2987 47.9179 68.096C48.2699 67.8827 48.5473 67.6 48.7499 67.248L50.4459 68.08C49.6139 69.5307 48.3499 70.256 46.6539 70.256ZM48.5899 64.928C48.5686 64.672 48.4726 64.4213 48.3019 64.176C48.1419 63.92 47.9126 63.712 47.6139 63.552C47.3259 63.3813 46.9846 63.296 46.5899 63.296C46.0886 63.296 45.6566 63.4453 45.2939 63.744C44.9419 64.032 44.6859 64.4267 44.5259 64.928H48.5899ZM55.2982 70.128C54.8929 70.128 54.5195 70.0693 54.1782 69.952C53.8369 69.824 53.5595 69.6533 53.3462 69.44C52.8449 68.96 52.5942 68.2773 52.5942 67.392V63.632H51.1702V61.84H52.5942V59.536H54.6902V61.84H56.6902V63.632H54.6902V67.008C54.6902 67.424 54.7809 67.7227 54.9622 67.904C55.1115 68.0747 55.3675 68.16 55.7302 68.16C55.9329 68.16 56.0982 68.1333 56.2262 68.08C56.3649 68.0267 56.5409 67.936 56.7542 67.808V69.856C56.2955 70.0373 55.8102 70.128 55.2982 70.128ZM57.9697 62.176L58.7857 60.928C58.5404 60.832 58.3377 60.672 58.1777 60.448C58.0177 60.224 57.9377 59.968 57.9377 59.68C57.9377 59.296 58.071 58.9707 58.3377 58.704C58.615 58.4267 58.9457 58.288 59.3297 58.288C59.7137 58.288 60.039 58.4267 60.3057 58.704C60.5724 58.9707 60.7057 59.296 60.7057 59.68C60.7057 59.872 60.6737 60.048 60.6097 60.208C60.5457 60.3573 60.4444 60.5333 60.3057 60.736L58.9137 62.8L57.9697 62.176ZM64.5577 70.256C63.5657 70.256 62.7604 70.0533 62.1417 69.648C61.5337 69.2427 61.107 68.7147 60.8617 68.064L62.7337 67.248C62.9044 67.632 63.1444 67.9253 63.4537 68.128C63.7737 68.32 64.1417 68.416 64.5577 68.416C64.9417 68.416 65.2617 68.3573 65.5177 68.24C65.7737 68.112 65.9017 67.9093 65.9017 67.632C65.9017 67.3653 65.7844 67.168 65.5497 67.04C65.315 66.9013 64.963 66.7787 64.4937 66.672L63.5337 66.464C62.8724 66.304 62.323 66.016 61.8857 65.6C61.4484 65.1733 61.2297 64.6453 61.2297 64.016C61.2297 63.5467 61.3684 63.1253 61.6457 62.752C61.9337 62.3787 62.3177 62.0907 62.7977 61.888C63.2884 61.6853 63.827 61.584 64.4137 61.584C66.099 61.584 67.2244 62.176 67.7897 63.36L65.9977 64.144C65.6777 63.568 65.1657 63.28 64.4617 63.28C64.099 63.28 63.811 63.3493 63.5977 63.488C63.3844 63.616 63.2777 63.7813 63.2777 63.984C63.2777 64.368 63.6404 64.656 64.3657 64.848L65.5657 65.136C66.3764 65.3387 66.9844 65.648 67.3897 66.064C67.8057 66.48 68.0137 66.992 68.0137 67.6C68.0137 68.1227 67.859 68.5867 67.5497 68.992C67.251 69.3867 66.835 69.696 66.3017 69.92C65.779 70.144 65.1977 70.256 64.5577 70.256ZM76.5618 73.712C75.5271 73.712 74.6685 73.4773 73.9858 73.008C73.3031 72.5493 72.8445 71.9947 72.6098 71.344L74.5778 70.544C74.7485 70.9493 75.0098 71.2693 75.3618 71.504C75.7138 71.7387 76.1138 71.856 76.5618 71.856C77.2231 71.856 77.7458 71.6533 78.1298 71.248C78.5245 70.8427 78.7218 70.2667 78.7218 69.52V68.88H78.5938C78.3378 69.2427 78.0018 69.52 77.5858 69.712C77.1698 69.904 76.6951 70 76.1618 70C75.4898 70 74.8605 69.8293 74.2738 69.488C73.6978 69.136 73.2338 68.6453 72.8818 68.016C72.5298 67.376 72.3538 66.6347 72.3538 65.792C72.3538 64.9493 72.5298 64.2133 72.8818 63.584C73.2338 62.944 73.6978 62.4533 74.2738 62.112C74.8605 61.76 75.4898 61.584 76.1618 61.584C76.6951 61.584 77.1698 61.68 77.5858 61.872C78.0018 62.064 78.3378 62.3413 78.5938 62.704H78.7218V61.84H80.7378V69.44C80.7378 70.3147 80.5671 71.072 80.2258 71.712C79.8845 72.352 79.3991 72.8427 78.7698 73.184C78.1405 73.536 77.4045 73.712 76.5618 73.712ZM76.5938 68.096C77.1805 68.096 77.6818 67.8933 78.0978 67.488C78.5138 67.072 78.7218 66.5067 78.7218 65.792C78.7218 65.056 78.5138 64.4907 78.0978 64.096C77.6925 63.6907 77.1911 63.488 76.5938 63.488C75.9965 63.488 75.4898 63.6907 75.0738 64.096C74.6578 64.5013 74.4498 65.0667 74.4498 65.792C74.4498 66.5173 74.6578 67.0827 75.0738 67.488C75.4898 67.8933 75.9965 68.096 76.5938 68.096ZM86.3721 70.256C85.5294 70.256 84.7774 70.0693 84.1161 69.696C83.4547 69.312 82.9374 68.7947 82.5641 68.144C82.2014 67.4827 82.0201 66.7413 82.0201 65.92C82.0201 65.1093 82.2014 64.3733 82.5641 63.712C82.9374 63.0507 83.4547 62.5333 84.1161 62.16C84.7774 61.776 85.5294 61.584 86.3721 61.584C87.2041 61.584 87.9507 61.776 88.6121 62.16C89.2734 62.5333 89.7854 63.0507 90.1481 63.712C90.5214 64.3733 90.7081 65.1093 90.7081 65.92C90.7081 66.7413 90.5214 67.4827 90.1481 68.144C89.7854 68.7947 89.2734 69.312 88.6121 69.696C87.9507 70.0693 87.2041 70.256 86.3721 70.256ZM86.3721 68.32C86.7774 68.32 87.1507 68.224 87.4921 68.032C87.8334 67.84 88.1054 67.5627 88.3081 67.2C88.5107 66.8373 88.6121 66.4107 88.6121 65.92C88.6121 65.44 88.5107 65.0187 88.3081 64.656C88.1054 64.2933 87.8334 64.016 87.4921 63.824C87.1507 63.632 86.7774 63.536 86.3721 63.536C85.9667 63.536 85.5934 63.632 85.2521 63.824C84.9107 64.016 84.6334 64.2933 84.4201 64.656C84.2174 65.0187 84.1161 65.44 84.1161 65.92C84.1161 66.4 84.2174 66.8267 84.4201 67.2C84.6334 67.5627 84.9107 67.84 85.2521 68.032C85.5934 68.224 85.9667 68.32 86.3721 68.32ZM92.2638 61.84V58.544H94.4078V61.84L94.2158 66.064H92.4558L92.2638 61.84ZM93.3358 70.096C92.9518 70.096 92.6211 69.9627 92.3438 69.696C92.0771 69.4187 91.9438 69.088 91.9438 68.704C91.9438 68.32 92.0771 67.9947 92.3438 67.728C92.6211 67.4613 92.9518 67.328 93.3358 67.328C93.7198 67.328 94.0451 67.4613 94.3118 67.728C94.5891 67.9947 94.7278 68.32 94.7278 68.704C94.7278 69.088 94.5891 69.4187 94.3118 69.696C94.0451 69.9627 93.7198 70.096 93.3358 70.096Z" fill="#F3A932"/>
</g>
<defs>
<filter id="filter0_d" x="0" y="0" width="130" height="130" filterUnits="userSpaceOnUse" color-interpolation-filters="sRGB">
<feFlood flood-opacity="0" result="BackgroundImageFix"/>
<feColorMatrix in="SourceAlpha" type="matrix" values="0 0 0 0 0 0 0 0 0 0 0 0 0 0 0 0 0 0 127 0"/>
<feOffset dy="1"/>
<feGaussianBlur stdDeviation="5"/>
<feColorMatrix type="matrix" values="0 0 0 0 0.952941 0 0 0 0 0.662745 0 0 0 0 0.196078 0 0 0 1 0"/>
<feBlend mode="normal" in2="BackgroundImageFix" result="effect1_dropShadow"/>
<feBlend mode="normal" in="SourceGraphic" in2="effect1_dropShadow" result="shape"/>
</filter>
</defs>
</svg>
