<svg width="130" height="130" viewBox="0 0 130 130" fill="none" xmlns="http://www.w3.org/2000/svg">
<g filter="url(#filter0_d)">
<circle cx="64.4762" cy="63.4761" r="47.1429" fill="white"/>
<circle r="50.3096" transform="matrix(-1 0 0 1 69.1904 61.9048)" stroke="#31AC53"/>
<circle r="50.3096" transform="matrix(-1 0 0 1 63.9524 66.0952)" stroke="#31AC53"/>
<circle r="50.3096" transform="matrix(-1 0 0 1 69.1904 68.1902)" stroke="#31AC53"/>
<circle r="50.3096" transform="matrix(-1 0 0 1 60.8096 61.9048)" stroke="#31AC53"/>
<circle r="50.3096" transform="matrix(-1 0 0 1 69.1902 59.8096)" stroke="#31AC53"/>
<circle r="50.3096" transform="matrix(-1 0 0 1 60.8096 66.0952)" stroke="#31AC53"/>
<circle r="50.3096" transform="matrix(-1 0 0 1 67.0951 64.0003)" stroke="#31AC53"/>
<path d="M26.9623 57.544H29.4743L34.0823 65.224H34.2103L34.0823 63.016V57.544H36.2263V69H33.9543L29.0903 60.888H28.9623L29.0903 63.096V69H26.9623V57.544ZM42.1333 69.256C41.3226 69.256 40.592 69.0693 39.9413 68.696C39.2906 68.3227 38.7786 67.8107 38.4053 67.16C38.0426 66.4987 37.8613 65.7573 37.8613 64.936C37.8613 64.1573 38.0426 63.4373 38.4053 62.776C38.768 62.104 39.2693 61.5707 39.9093 61.176C40.5493 60.7813 41.264 60.584 42.0533 60.584C42.896 60.584 43.6213 60.7653 44.2293 61.128C44.8373 61.4907 45.296 61.9867 45.6053 62.616C45.9253 63.2453 46.0853 63.944 46.0853 64.712C46.0853 64.9573 46.0693 65.192 46.0373 65.416H39.9093C40.016 66.0667 40.272 66.5627 40.6773 66.904C41.0933 67.2347 41.5893 67.4 42.1653 67.4C42.6453 67.4 43.056 67.2987 43.3973 67.096C43.7493 66.8827 44.0266 66.6 44.2293 66.248L45.9253 67.08C45.0933 68.5307 43.8293 69.256 42.1333 69.256ZM44.0693 63.928C44.048 63.672 43.952 63.4213 43.7813 63.176C43.6213 62.92 43.392 62.712 43.0933 62.552C42.8053 62.3813 42.464 62.296 42.0693 62.296C41.568 62.296 41.136 62.4453 40.7733 62.744C40.4213 63.032 40.1653 63.4267 40.0053 63.928H44.0693ZM49.3197 64.856L46.5037 60.84H48.9837L50.5357 63.176H50.6317L52.0877 60.84H54.6477L51.7837 64.856L54.6477 69H52.1677L50.5997 66.616H50.5037L48.9677 69H46.4877L49.3197 64.856ZM59.1938 69.128C58.7885 69.128 58.4151 69.0693 58.0738 68.952C57.7325 68.824 57.4551 68.6533 57.2418 68.44C56.7405 67.96 56.4898 67.2773 56.4898 66.392V62.632H55.0658V60.84H56.4898V58.536H58.5858V60.84H60.5858V62.632H58.5858V66.008C58.5858 66.424 58.6765 66.7227 58.8578 66.904C59.0071 67.0747 59.2631 67.16 59.6258 67.16C59.8285 67.16 59.9938 67.1333 60.1218 67.08C60.2605 67.0267 60.4365 66.936 60.6498 66.808V68.856C60.1911 69.0373 59.7058 69.128 59.1938 69.128ZM69.1513 69.128C68.746 69.128 68.3726 69.0693 68.0313 68.952C67.69 68.824 67.4126 68.6533 67.1993 68.44C66.698 67.96 66.4473 67.2773 66.4473 66.392V62.632H65.0233V60.84H66.4473V58.536H68.5433V60.84H70.5433V62.632H68.5433V66.008C68.5433 66.424 68.634 66.7227 68.8153 66.904C68.9646 67.0747 69.2206 67.16 69.5833 67.16C69.786 67.16 69.9513 67.1333 70.0793 67.08C70.218 67.0267 70.394 66.936 70.6073 66.808V68.856C70.1486 69.0373 69.6633 69.128 69.1513 69.128ZM73.3089 59.944C72.9356 59.944 72.6156 59.8107 72.3489 59.544C72.0823 59.2773 71.9489 58.9573 71.9489 58.584C71.9489 58.2107 72.0823 57.896 72.3489 57.64C72.6156 57.3733 72.9356 57.24 73.3089 57.24C73.6823 57.24 73.9969 57.3733 74.2529 57.64C74.5196 57.896 74.6529 58.2107 74.6529 58.584C74.6529 58.9573 74.5196 59.2773 74.2529 59.544C73.9969 59.8107 73.6823 59.944 73.3089 59.944ZM72.2529 60.84H74.3489V69H72.2529V60.84ZM76.3068 60.84H78.2748V61.864H78.4028C78.6588 61.4693 79.0001 61.16 79.4268 60.936C79.8641 60.7013 80.3495 60.584 80.8828 60.584C81.4588 60.584 81.9601 60.7227 82.3868 61C82.8135 61.2667 83.1175 61.608 83.2988 62.024C83.5655 61.5973 83.9281 61.2507 84.3868 60.984C84.8561 60.7173 85.4055 60.584 86.0348 60.584C86.9628 60.584 87.6668 60.872 88.1468 61.448C88.6375 62.0133 88.8828 62.7813 88.8828 63.752V69H86.8028V64.136C86.8028 63.624 86.6801 63.2293 86.4348 62.952C86.2001 62.6747 85.8695 62.536 85.4428 62.536C84.8988 62.536 84.4615 62.7547 84.1308 63.192C83.8108 63.6187 83.6508 64.184 83.6508 64.888V69H81.5548V64.136C81.5548 63.624 81.4268 63.2293 81.1708 62.952C80.9255 62.6747 80.5735 62.536 80.1148 62.536C79.6028 62.536 79.1868 62.7547 78.8668 63.192C78.5575 63.6187 78.4028 64.184 78.4028 64.888V69H76.3068V60.84ZM94.4689 69.256C93.6583 69.256 92.9276 69.0693 92.2769 68.696C91.6263 68.3227 91.1143 67.8107 90.7409 67.16C90.3783 66.4987 90.1969 65.7573 90.1969 64.936C90.1969 64.1573 90.3783 63.4373 90.7409 62.776C91.1036 62.104 91.6049 61.5707 92.2449 61.176C92.8849 60.7813 93.5996 60.584 94.3889 60.584C95.2316 60.584 95.9569 60.7653 96.5649 61.128C97.1729 61.4907 97.6316 61.9867 97.9409 62.616C98.2609 63.2453 98.4209 63.944 98.4209 64.712C98.4209 64.9573 98.4049 65.192 98.3729 65.416H92.2449C92.3516 66.0667 92.6076 66.5627 93.0129 66.904C93.4289 67.2347 93.9249 67.4 94.5009 67.4C94.9809 67.4 95.3916 67.2987 95.7329 67.096C96.0849 66.8827 96.3623 66.6 96.5649 66.248L98.2609 67.08C97.4289 68.5307 96.1649 69.256 94.4689 69.256ZM96.4049 63.928C96.3836 63.672 96.2876 63.4213 96.1169 63.176C95.9569 62.92 95.7276 62.712 95.4289 62.552C95.1409 62.3813 94.7996 62.296 94.4049 62.296C93.9036 62.296 93.4716 62.4453 93.1089 62.744C92.7569 63.032 92.5009 63.4267 92.3409 63.928H96.4049ZM99.9876 60.84V57.544H102.132V60.84L101.94 65.064H100.18L99.9876 60.84ZM101.06 69.096C100.676 69.096 100.345 68.9627 100.068 68.696C99.8009 68.4187 99.6676 68.088 99.6676 67.704C99.6676 67.32 99.8009 66.9947 100.068 66.728C100.345 66.4613 100.676 66.328 101.06 66.328C101.444 66.328 101.769 66.4613 102.036 66.728C102.313 66.9947 102.452 67.32 102.452 67.704C102.452 68.088 102.313 68.4187 102.036 68.696C101.769 68.9627 101.444 69.096 101.06 69.096Z" fill="#31AC53"/>
</g>
<defs>
<filter id="filter0_d" x="0" y="0" width="130" height="130" filterUnits="userSpaceOnUse" color-interpolation-filters="sRGB">
<feFlood flood-opacity="0" result="BackgroundImageFix"/>
<feColorMatrix in="SourceAlpha" type="matrix" values="0 0 0 0 0 0 0 0 0 0 0 0 0 0 0 0 0 0 127 0"/>
<feOffset dy="1"/>
<feGaussianBlur stdDeviation="5"/>
<feColorMatrix type="matrix" values="0 0 0 0 0.192157 0 0 0 0 0.67451 0 0 0 0 0.32549 0 0 0 1 0"/>
<feBlend mode="normal" in2="BackgroundImageFix" result="effect1_dropShadow"/>
<feBlend mode="normal" in="SourceGraphic" in2="effect1_dropShadow" result="shape"/>
</filter>
</defs>
</svg>
